<svg viewBox="0 0 32 38" fill="none" xmlns="http://www.w3.org/2000/svg">
  <defs>
    <linearGradient id="vaseGradient" x1="16" y1="0" x2="16" y2="38" gradientUnits="userSpaceOnUse">
      <stop offset="0%" stop-color="#2D2A26"/>
      <stop offset="100%" stop-color="#1a1815"/>
    </linearGradient>
  </defs>
  <path d="M13 4 H19 L19 6 C19 6 21 7 22 9 C23.5 12 24 15 24 18 C24 22 24.5 26 23 30 C22 33 20 35 16 35 C12 35 10 33 9 30 C7.5 26 8 22 8 18 C8 15 8.5 12 10 9 C11 7 13 6 13 6 Z" fill="url(#vaseGradient)"/>
  <path d="M10 9 C6 10 5 14 5 17 C5 20 6 23 9 24" stroke="url(#vaseGradient)" stroke-width="2.5" fill="none" stroke-linecap="round"/>
  <path d="M22 9 C26 10 27 14 27 17 C27 20 26 23 23 24" stroke="url(#vaseGradient)" stroke-width="2.5" fill="none" stroke-linecap="round"/>
  <ellipse cx="16" cy="4" rx="5" ry="1.5" fill="url(#vaseGradient)"/>
  <path d="M12 35 L11 37 H21 L20 35" fill="url(#vaseGradient)"/>
  <ellipse cx="16" cy="37" rx="6" ry="1" fill="url(#vaseGradient)"/>
  <rect x="12" y="7" width="8" height="2" rx="0.5" fill="#E8723C"/>
  <line x1="10" y1="14" x2="22" y2="14" stroke="#E8723C" stroke-width="1.2" stroke-linecap="round"/>
  <line x1="10.5" y1="29" x2="21.5" y2="29" stroke="#E8723C" stroke-width="1.2" stroke-linecap="round"/>
</svg>
